<svg height="300px" width="300px" fill="#000000" xmlns="http://www.w3.org/2000/svg" xmlns:xlink="http://www.w3.org/1999/xlink" xml:space="preserve" version="1.1" style="shape-rendering:geometricPrecision;text-rendering:geometricPrecision;image-rendering:optimizeQuality;" viewBox="0 0 32828 29377" x="0px" y="0px" fill-rule="evenodd" clip-rule="evenodd"><defs><style type="text/css">
   
    .fil0 {fill:#000000}
   
  </style></defs><g><path class="fil0" d="M15344 8593c1101,0 1994,892 1994,1993 0,1101 -893,1992 -1994,1992 -1100,0 -1992,-891 -1992,-1992 0,-1101 892,-1993 1992,-1993zm-11894 -4237c-250,-250 -250,-657 0,-906 250,-250 656,-250 906,0l1530 1530 1530 -1530c250,-250 657,-250 906,0 250,249 250,656 0,906l-1530 1530 1530 1531c250,249 250,655 0,905 -249,250 -656,250 -906,0l-1530 -1531 -1530 1531c-250,250 -656,250 -906,0 -250,-250 -250,-656 0,-905l1530 -1531 -1530 -1530zm2436 -4356c1624,0 3095,659 4161,1723 1065,1067 1725,2539 1725,4163 0,1626 -660,3097 -1724,4161 -1065,1066 -2537,1724 -4162,1724 -1623,0 -3095,-658 -4160,-1724 -1067,-1066 -1726,-2538 -1726,-4161 0,-1625 659,-3097 1724,-4163 1064,-1063 2536,-1723 4162,-1723zm3630 2255c-929,-928 -2212,-1502 -3630,-1502 -1417,0 -2701,575 -3630,1503 -928,929 -1503,2213 -1503,3630 0,1418 574,2702 1502,3629 929,929 2213,1504 3631,1504 1417,0 2701,-575 3629,-1504 929,-928 1504,-2212 1504,-3629 0,-1418 -575,-2702 -1503,-3631zm20743 23419l1428 -30c47,0 94,19 126,56 58,68 51,170 -16,229l-1028 893 -46 31c-81,36 -178,0 -216,-82l-393 -867c-9,-19 -14,-43 -15,-65 -1,-89 70,-164 160,-165zm100 1916l576 1067c22,41 26,90 8,137 -33,83 -128,123 -211,90l-1078 -432 -40 -22c-70,-56 -82,-158 -27,-228l495 -628c15,-20 33,-37 56,-50 79,-41 178,-12 221,66zm-7641 -17570l9783 2349c228,54 369,283 315,511l-2971 12372c-54,228 -283,369 -512,315 -172,-40 -293,-180 -320,-343l-112 -665 -567 1078c-86,164 -265,249 -439,223l-2104 -205 948 1327c136,191 91,457 -101,593l-89 49 -1658 794c-91,44 -190,52 -281,30l-5971 -1432c-228,-55 -370,-284 -315,-513l3883 -16168c53,-228 283,-369 511,-315zm9172 3076l-8956 -2150 -3684 15342 5410 1298 1091 -523 -1197 -1676c-56,-81 -87,-181 -77,-287 22,-233 231,-405 464,-383l2772 271 1023 -1947c60,-114 170,-200 307,-222 191,-31 375,70 454,238l2393 -9961zm-2907 15749l-49 205c-56,228 -286,369 -515,315l-719 -174c-228,-54 -370,-283 -315,-511 43,-188 207,-317 389,-328l774 -44c235,-13 436,167 450,402 2,47 -3,93 -15,135zm-16547 -15144c108,-299 347,-547 674,-653 558,-181 1160,125 1341,684 282,860 619,1630 1235,2354 643,755 1619,1511 3188,2334 519,273 718,918 445,1437 -273,521 -918,720 -1437,446 -1820,-955 -2995,-1880 -3814,-2841 -221,-260 -415,-520 -587,-781l-899 2119c1205,1004 2208,2150 2878,3502 804,1626 1120,3518 722,5770 -101,580 -654,969 -1234,868 -580,-102 -968,-654 -867,-1234 312,-1773 78,-3231 -530,-4461 -328,-662 -765,-1268 -1288,-1830 -96,815 -255,1684 -470,2548 -402,1610 -1010,3232 -1788,4484 -307,499 -964,655 -1463,346 -499,-308 -654,-963 -346,-1463 651,-1049 1174,-2458 1529,-3884 395,-1582 587,-2272 510,-3363 -14,-201 17,-1270 103,-1437l2098 -4945z"/></g></svg>