<svg height="300px" width="300px" fill="#000000" xmlns="http://www.w3.org/2000/svg" xmlns:xlink="http://www.w3.org/1999/xlink" version="1.1" x="0px" y="0px" viewBox="0 0 90 90" enable-background="new 0 0 90 90" xml:space="preserve"><g><g><path fill="#000000" d="M29.23,35.191c-6.372-0.223-12.832,0.271-19.379,1.482c10.619-0.754,17.174-0.061,19.667,2.081    c0.563,0.441,1.366,0.845,2.408,1.213c2.269,0.807,5.009,1.211,8.219,1.211c3.21,0,5.95-0.405,8.219-1.211    c2.27-0.809,3.404-1.782,3.404-2.918c0-1.137-1.135-2.11-3.404-2.917c-1.643-0.58-3.529-0.949-5.66-1.108    c-0.819-0.064-1.672-0.096-2.56-0.096c-0.569,0-1.124,0.014-1.666,0.04C25.005,32.808,13.513,34.038,4,36.658    C17.137,34.83,25.548,34.341,29.23,35.191z"/><path fill="#000000" d="M89.37,79.336c-0.322-0.154-0.811-0.289-1.465-0.405c-0.763-0.112-1.313-0.199-1.646-0.257    c-0.585-0.104-0.982-0.224-1.188-0.361c-0.529-0.352-1.311-0.918-2.344-1.699c-1.084-0.826-1.784-1.358-2.093-1.594    c-1.413-0.925-2.774-1.904-4.085-2.938c-2.59-2.046-3.885-3.546-3.885-4.506c0-0.287,0.019-0.465,0.059-0.535    c0.047-0.08,0.175-0.12,0.389-0.12c0.321,0,0.734,0.032,1.241,0.094c0.597,0.076,1.013,0.164,1.25,0.268    c0.372,0.155,0.645,0.409,0.818,0.759c0,0.006,0.067,0.17,0.205,0.491c0.092,0.213,0.19,0.394,0.293,0.544    c0.236,0.355,0.819,0.922,1.75,1.697c0.999,0.826,1.646,1.24,1.938,1.24c0.379,0,0.67-0.158,0.871-0.475    c0.16-0.253,0.241-0.542,0.241-0.87c0-0.551-0.383-1.284-1.146-2.196c-0.432-0.489-0.749-0.854-0.956-1.096    c-0.357-0.419-0.616-0.772-0.777-1.06c-0.424-0.763-0.714-1.283-0.869-1.56c-0.247-0.442-0.459-0.76-0.638-0.956    c-0.212-0.225-0.472-0.383-0.774-0.474c-0.294-0.087-0.714-0.13-1.258-0.13c-0.241,0-0.601,0.032-1.079,0.096    c-0.48,0.058-0.832,0.085-1.05,0.085c-0.953,0-1.606-0.12-1.956-0.36c-0.114-0.082-0.213-0.188-0.294-0.32    c0.104-0.091,0.214-0.191,0.328-0.302c0.482-0.447,0.99-0.959,1.525-1.533l0.206,0.466c0.18,0.31,0.368,0.466,0.569,0.466    c0.087,0,0.265-0.526,0.533-1.576c0.121-0.461,0.23-0.854,0.328-1.183c1.194-4.881,0.031-9.592-3.49-14.13    c-0.045-0.058-0.088-0.111-0.128-0.163c0.011-0.007,0.026-0.012,0.043-0.018c0.201-0.087,0.439-0.189,0.715-0.31    c0.902-0.402,1.371-0.831,1.405-1.285c0.027-0.453-0.859-1.192-2.663-2.214c0.165-0.178,0.255-0.29,0.266-0.335    c0.094-0.339,0.14-0.563,0.14-0.672c-0.017-0.184-0.141-0.353-0.371-0.508c-0.431-0.282-1.771-0.724-4.024-1.327    c-0.326-0.086-0.686-0.207-1.077-0.362c-0.557-0.408-1.163-0.747-1.817-1.017c-1.809-0.804-3.475-0.985-4.997-0.543    c-1.533,0.437-2.628,1.45-3.283,3.042l-4.471,1.094c-0.288,0.058-0.529,0.21-0.725,0.457c-0.201,0.247-0.287,0.508-0.258,0.784    c0.12,2.218,1.11,3.605,2.972,4.162c1.86,0.552,3.279,1.64,4.256,3.266c0.978,1.62-3.089,2.769-12.2,3.447    c-0.518,0.063-1.043,0.12-1.578,0.172c-1.447-0.034-3.914-0.201-7.401-0.5c-3.297-0.281-5.684-0.511-7.16-0.689    c-1.31-0.16-2.677-0.425-4.102-0.792c-1.218-0.322-2.547-0.738-3.989-1.25c-1.114-0.391-2.297-0.746-3.55-1.068    c-3.257-0.845-6.371-0.913-9.34-0.207c-2.97,0.707-4.911,2.011-5.824,3.912h0.121c1.74-0.861,3.266-0.813,4.575,0.146    c0.328,0.156,0.821,0.378,1.482,0.664c0.821,0.368,1.58,0.639,2.274,0.81c0.982,0.241,2.042,0.362,3.18,0.362    c0.189,0,0.545-0.037,1.068-0.111c0.351-0.047,0.585-0.081,0.707-0.104c0.012-0.011,0.02-0.021,0.026-0.026h0.061    c-0.018,0.006-0.046,0.016-0.086,0.026c-0.195,0.149-0.58,0.388-1.155,0.715c-0.678,0.391-1.042,0.603-1.094,0.637    c0.023,0,0.04,0.013,0.051,0.036l0.009,0.024c0.5,0.069,0.999,0.133,1.5,0.19c0.994,0.114,1.623,0.172,1.887,0.172    c0.402,0,0.867-0.04,1.396-0.121c0.385-0.063,0.744-0.135,1.077-0.215c0.005-0.011,0.011-0.021,0.017-0.026h0.061    c-0.029,0.006-0.055,0.016-0.077,0.026c-0.253,0.288-0.471,0.53-0.655,0.733c-0.345,0.373-0.578,0.562-0.698,0.567h0.862    c0.821,0,1.585-0.097,2.292-0.292c0.77-0.214,1.563-0.559,2.378-1.035c0.023-0.034,0.034-0.054,0.034-0.061h0.061    c-0.029,0.023-0.061,0.044-0.095,0.061c-0.058,0.093-0.189,0.308-0.396,0.646c-0.27,0.442-0.405,0.698-0.405,0.768    c0,0.045,0,0.074,0,0.085c0.304-0.148,0.77-0.323,1.396-0.524c0.626-0.207,1.02-0.311,1.18-0.311c1.631,0,2.51,0.499,2.637,1.499    l0.069,0.017c-0.12,0.604-0.215,1.072-0.284,1.405c-0.252,1.321-0.379,2.367-0.379,3.136c0,0.575,0.028,1.345,0.086,2.31    c0.057,0.966,0.086,1.554,0.086,1.766c0,0.397-0.083,0.82-0.25,1.268c-0.006,0.017-0.015,0.037-0.026,0.06    c-0.557-0.292-1.114-0.614-1.672-0.965c-1.458-0.792-2.481-0.758-3.067,0.104c-0.31,0.466-0.465,1.086-0.465,1.861    c0.034,0.517,0.081,1.033,0.138,1.552c-0.207-0.023-0.365-0.036-0.474-0.036c-0.626,0-1.132,0.104-1.517,0.312    c-0.345,0.184-0.632,0.477-0.861,0.879c-0.173,0.31-0.354,0.778-0.543,1.404c-0.109,0.362-0.292,0.977-0.551,1.843    c-0.046,0.133-0.227,0.523-0.543,1.173c-0.603,1.229-0.93,1.901-0.982,2.016c-0.908,1.896-1.361,3.042-1.361,3.438    c0,0.591,0.101,1.063,0.301,1.414c0.229,0.396,0.572,0.594,1.026,0.594c0.936,0,1.774-0.818,2.516-2.455    c0.247-0.547,0.488-1.193,0.724-1.938c0.218-0.748,0.356-1.221,0.414-1.424c0.264-0.872,0.537-1.564,0.819-2.076    c0.287-0.527,0.614-0.93,0.982-1.205c0.184-0.133,0.388-0.244,0.612-0.336c0.04,0.217,0.083,0.434,0.129,0.646    c0.827,3.803,1.918,5.704,3.274,5.704c0.557,0,0.905-0.251,1.043-0.75c0.051-0.166,0.078-0.367,0.078-0.603    c-0.006-0.241-0.009-0.399-0.009-0.475c0-0.437-0.218-1.419-0.655-2.946c-0.229-0.798-0.399-1.417-0.508-1.854    c0.356,0.036,0.81,0.084,1.361,0.147c1.252,0.138,2.226,0.207,2.921,0.207c2.286,0,4.101-0.397,5.445-1.189    c0.977-0.574,1.803-1.446,2.481-2.619c0.086-0.145,0.333-0.609,0.741-1.396c0.281-0.534,0.528-0.939,0.741-1.215    c0.292-0.392,0.618-0.681,0.974-0.871c0.414-0.218,0.902-0.328,1.465-0.328c1.189,0,2.616,0.222,4.282,0.664    c0.449,0.121,0.968,0.273,1.56,0.456c0.448,0.138,0.689,0.208,0.724,0.208c0.052,0,0.112-0.011,0.181-0.034    c0.063-0.018,0.111-0.026,0.147-0.026v0.061c-0.409,0.275-0.685,0.456-0.828,0.543c-0.345,0.207-0.667,0.365-0.966,0.473    c0.18,0.03,0.875,0.142,2.086,0.338c1.315,0.176,2.488,0.266,3.516,0.266c0.879,0,1.603-0.086,2.172-0.258    c0.219-0.07,0.465-0.164,0.741-0.285c0.165-0.074,0.427-0.194,0.782-0.361c-0.315,0.414-0.647,0.837-0.998,1.267    c-0.42,0.506-0.707,0.824-0.861,0.956h0.206c0.185,0,0.595-0.061,1.232-0.181c0.729-0.127,1.453-0.282,2.171-0.464    c1.845-0.473,3.032-0.945,3.568-1.422c0.051-0.053,0.097-0.104,0.138-0.156v0.301c-0.041,0.174-0.167,0.54-0.38,1.104    c-0.189,0.489-0.284,0.802-0.284,0.939c0.948-0.42,1.7-0.789,2.257-1.111c0.725-0.414,1.281-0.815,1.673-1.207l0.162,0.155    c0.593,0.689,1.176,1.371,1.75,2.042l-0.026-0.024c0.396,1.033,0.342,2.101-0.164,3.204c2.052-0.511,4.057-0.252,6.014,0.775    c1.19,0.626,2.988,1.709,5.396,3.248c2.395,1.54,4.124,2.589,5.186,3.146c1.8,0.937,3.243,1.405,4.335,1.405    c0.672,0,1.252-0.159,1.741-0.476C89.738,81.094,90,80.651,90,80.113C90,79.796,89.789,79.537,89.37,79.336z M58.852,40.633    c0,0.322-0.112,0.589-0.336,0.801c-0.214,0.225-0.482,0.336-0.811,0.336c-0.31-0.006-0.574-0.115-0.792-0.328    c-0.007,0-0.01-0.003-0.01-0.009c-0.224-0.218-0.332-0.485-0.326-0.801v-0.008c0-0.149,0.023-0.291,0.068-0.422    c0-0.006,0.003-0.012,0.009-0.017c0.058-0.126,0.138-0.242,0.241-0.345c0.219-0.224,0.488-0.342,0.81-0.353    c0.321,0.005,0.593,0.117,0.811,0.335c0.224,0.225,0.336,0.491,0.336,0.802V40.633z"/></g></g></svg>