<?xml version="1.0" encoding="UTF-8" standalone="no"?>
<!-- Created with Inkscape (http://www.inkscape.org/) -->

<svg
   xmlns:dc="http://purl.org/dc/elements/1.1/"
   xmlns:cc="http://creativecommons.org/ns#"
   xmlns:rdf="http://www.w3.org/1999/02/22-rdf-syntax-ns#"
   xmlns:svg="http://www.w3.org/2000/svg"
   xmlns="http://www.w3.org/2000/svg"
   xmlns:xlink="http://www.w3.org/1999/xlink"
   xmlns:sodipodi="http://sodipodi.sourceforge.net/DTD/sodipodi-0.dtd"
   xmlns:inkscape="http://www.inkscape.org/namespaces/inkscape"
   width="143.38837mm"
   height="143.38837mm"
   viewBox="0 0 143.38837 143.38837"
   version="1.1"
   id="svg8"
   sodipodi:docname="FIRST-cargo.svg"
   inkscape:version="0.92.3 (2405546, 2018-03-11)">
  <defs
     id="defs2">
    <linearGradient
       id="linearGradient2180">
      <stop
         id="stop2192"
         offset="0"
         style="stop-color:#ffffff;stop-opacity:1;" />
      <stop
         style="stop-color:#ffc7a3;stop-opacity:1;"
         offset="0.25"
         id="stop2198" />
      <stop
         style="stop-color:#ffaa72;stop-opacity:1;"
         offset="0.5"
         id="stop2196" />
      <stop
         style="stop-color:#ff6c0b;stop-opacity:1;"
         offset="1"
         id="stop2178" />
    </linearGradient>
    <radialGradient
       inkscape:collect="always"
       xlink:href="#linearGradient2180"
       id="radialGradient2184"
       cx="78.304764"
       cy="87.159515"
       fx="78.304764"
       fy="87.159515"
       r="58.608727"
       gradientUnits="userSpaceOnUse"
       gradientTransform="matrix(1.01939,0,0,1.01939,-0.74350843,-3.1537755)" />
    <filter
       inkscape:label="Roughen Inside"
       inkscape:menu="Distort"
       inkscape:menu-tooltip="Roughen all inside shapes"
       style="color-interpolation-filters:sRGB"
       id="filter2856">
      <feTurbulence
         numOctaves="5"
         seed="0"
         type="fractalNoise"
         baseFrequency="0.08"
         id="feTurbulence2848" />
      <feGaussianBlur
         stdDeviation="0.5"
         result="result91"
         id="feGaussianBlur2850" />
      <feDisplacementMap
         scale="20"
         yChannelSelector="G"
         xChannelSelector="R"
         in="SourceGraphic"
         result="result1"
         in2="result91"
         id="feDisplacementMap2852" />
      <feComposite
         in="result1"
         in2="SourceGraphic"
         operator="atop"
         id="feComposite2854" />
    </filter>
  </defs>
  <sodipodi:namedview
     id="base"
     pagecolor="#ffffff"
     bordercolor="#666666"
     borderopacity="1.0"
     inkscape:pageopacity="0.0"
     inkscape:pageshadow="2"
     inkscape:zoom="0.49497475"
     inkscape:cx="32.211683"
     inkscape:cy="321.57726"
     inkscape:document-units="mm"
     inkscape:current-layer="layer1"
     showgrid="false"
     inkscape:window-width="1600"
     inkscape:window-height="847"
     inkscape:window-x="-8"
     inkscape:window-y="-8"
     inkscape:window-maximized="1" />
  <metadata
     id="metadata5">
    <rdf:RDF>
      <cc:Work
         rdf:about="">
        <dc:format>image/svg+xml</dc:format>
        <dc:type
           rdf:resource="http://purl.org/dc/dcmitype/StillImage" />
        <dc:title></dc:title>
      </cc:Work>
    </rdf:RDF>
  </metadata>
  <g
     inkscape:label="Layer 1"
     inkscape:groupmode="layer"
     id="layer1"
     transform="translate(-26.650666,-30.95501)">
    <ellipse
       style="opacity:0.5;fill:#000000;stroke:none;stroke-width:0.76226604;stroke-miterlimit:4;stroke-dasharray:none;stroke-opacity:1"
       id="path3786"
       cx="116.5859"
       cy="147.01599"
       rx="42.711304"
       ry="15.330845" />
    <circle
       style="opacity:1;fill:url(#radialGradient2184);fill-opacity:1;stroke:none;stroke-width:0.50969505;stroke-miterlimit:4;stroke-dasharray:none;stroke-opacity:1;filter:url(#filter2856)"
       id="path2139"
       cx="98.344849"
       cy="102.64919"
       r="59.745152" />
    <path
       style="opacity:0.22600026;fill:#000000;stroke:#000000;stroke-width:0.67491567;stroke-miterlimit:4;stroke-dasharray:none;stroke-opacity:1"
       d=""
       id="path2258"
       inkscape:connector-curvature="0"
       transform="matrix(0.26458333,0,0,0.26458333,38.34485,42.649194)" />
    <g
       id="g3988"
       transform="matrix(2.2993264,0,0,2.2993264,470.15229,20.88728)">
      <path
         inkscape:connector-curvature="0"
         id="path14"
         style="fill:#000000;fill-opacity:1;fill-rule:nonzero;stroke:none;stroke-width:0.00851336"
         d="m -166.89003,34.304413 -0.11248,0.55542 1.06557,-0.44328 c -0.0662,-0.14325 -0.11894,-0.29128 -0.1567,-0.44307 l -0.79639,0.33093" />
      <path
         inkscape:connector-curvature="0"
         id="path16"
         style="fill:#000000;fill-opacity:1;fill-rule:nonzero;stroke:none;stroke-width:0.00851336"
         d="m -158.19014,36.627423 -0.86284,-0.84682 c 0.34537,-0.23087 0.63849,-0.50297 0.86521,-0.80697 0.003,-0.004 0.006,-0.009 0.009,-0.013 l 2.1449,-2.17894 0.0637,-0.0672 0.27998,-0.28514 -2.56293,-2.51476 -0.58871,0.5996 -0.64942,0.66202 -0.44228,0.45092 -0.83417,0.84987 5.1e-4,5.2e-4 -0.0722,0.0735 0.23806,0.23298 1.10417,1.10036 c -0.24683,0.22846 -0.55929,0.42318 -0.91127,0.56516 -8e-5,1e-4 -4.2e-4,1e-4 -5.9e-4,1.7e-4 l -0.72891,-0.71501 -0.71543,-0.70245 -0.48695,-0.4717 1.18243,-1.20501 0.5938,-0.60542 0.64554,-0.65747 1.61265,-1.64347 4.15405,4.06358 z m 0.57956,-3.52386 c 0.0203,-0.12399 0.0324,-0.24689 0.0337,-0.36496 0.008,-0.69609 -0.29964,-1.43334 -0.82326,-1.9864 l 0.13948,-0.1422 2.12303,2.0835 -1.79663,1.83044 c 0.19343,-0.43657 0.32132,-0.97632 0.32555,-1.36442 1.8e-4,-0.0164 -5.5e-4,-0.0355 -0.002,-0.056 z m -1.79123,0.68764 -1.00203,-0.99735 0.8675,-0.88415 c 0.30241,0.25777 0.52486,0.56414 0.64057,0.89949 -0.008,0.0544 -0.0179,0.10921 -0.0319,0.16405 -0.0754,0.29495 -0.23541,0.56974 -0.47412,0.81796 z m -0.18438,1.47265 c -0.15733,0.0779 -0.32404,0.14822 -0.49583,0.20954 -0.59001,0.21057 -1.22491,0.31373 -1.88687,0.30651 -0.93837,-0.0102 -1.82429,-0.24305 -2.56158,-0.67338 -0.40756,-0.23798 -0.74898,-0.52472 -1.01462,-0.85249 -0.10163,-0.12566 -0.19116,-0.25614 -0.26632,-0.38815 -0.15525,-0.27142 -0.2564,-0.5568 -0.30078,-0.84794 -0.0201,-0.12989 -0.0292,-0.25191 -0.0279,-0.3727 0.005,-0.44948 0.13855,-0.88078 0.39745,-1.28339 l 0.675,0.69826 c -0.0481,0.158 -0.0733,0.31881 -0.0751,0.47894 -0.001,0.13305 0.0137,0.26876 0.0448,0.40319 0.0444,0.19009 0.12245,0.37646 0.23159,0.55414 0.0864,0.14057 0.19205,0.27496 0.31391,0.39906 0.335,0.34199 0.79166,0.61319 1.32074,0.78441 0.40131,0.12992 0.82958,0.19828 1.2725,0.20311 0.35763,0.004 0.71154,-0.0346 1.05195,-0.11514 0.19386,-0.0461 0.38104,-0.10543 0.55617,-0.17586 0.40355,-0.1629 0.75963,-0.39195 1.03,-0.66281 0.27451,-0.27558 0.45676,-0.58443 0.54196,-0.91802 0.0344,-0.13465 0.0527,-0.26991 0.0541,-0.40211 0.004,-0.38019 -0.13444,-0.81199 -0.36427,-1.14355 l 0.58734,-0.59851 c 0.49141,0.52351 0.77843,1.21686 0.77131,1.86997 -0.001,0.11994 -0.0133,0.24522 -0.0356,0.372 -0.0957,0.54674 -0.39201,1.06533 -0.85709,1.49961 -0.2725,0.25477 -0.59647,0.47523 -0.96291,0.65531 z m -6.67784,-2.22262 c 7.8e-4,0.005 0.002,0.01 0.003,0.0147 -0.002,0.0193 -0.004,0.0374 -0.004,0.0519 -0.002,0.20507 0.11822,0.69338 0.16691,0.88819 0,2.6e-4 1.7e-4,4.3e-4 1.7e-4,6.9e-4 l -0.66994,0.27782 0.67204,-3.30729 0.25838,0.26113 c -0.29657,0.44145 -0.45075,0.91714 -0.45618,1.41522 -10e-4,0.12914 0.008,0.25926 0.0294,0.39767 z m 1.55209,0.40856 c -0.007,-0.0114 -0.0166,-0.0222 -0.0236,-0.0338 -0.10065,-0.16355 -0.17211,-0.33486 -0.21279,-0.50839 -0.004,-0.0183 -0.006,-0.0367 -0.009,-0.055 0.0513,-0.17389 0.13148,-0.33988 0.23638,-0.49582 l 0.80197,0.81084 z m 3.07102,0.49408 0.6894,0.67654 c -0.32555,0.0759 -0.66387,0.11281 -1.00591,0.10908 -0.42744,-0.005 -0.84032,-0.0705 -1.22702,-0.19569 -0.0516,-0.0167 -0.10188,-0.035 -0.152,-0.0536 l 1.55157,-0.67757 z m -6.83647,2.68636 1.58761,-8.32136 2.11451,2.04816 0.66241,0.64151 0.50621,0.49047 1.20164,1.1709 -0.006,0.52805 0.51073,0.5015 -1.62041,0.71646 c -0.36261,-0.15829 -0.67743,-0.36818 -0.92224,-0.61801 -0.006,-0.006 -0.0101,-0.012 -0.0156,-0.0176 l 1.2436,-0.56445 -2.8803,-2.74136 -0.0567,-0.0583 -0.0736,0.37449 -0.72623,3.57412 -0.11248,0.55547 0.18309,-0.0761 7.8e-4,-0.004 0.93904,-0.39035 c 0.14279,0.30958 0.34907,0.59818 0.60725,0.85691 z m 7.31428,-5.45207 -1.26267,1.28681 -1.08542,-1.05146 c 0.47336,-0.1996 1.02783,-0.31232 1.62024,-0.30586 0.25105,0.003 0.49453,0.0277 0.72785,0.0705 z m -0.88065,-1.70403 c 0.67719,0.007 1.58081,0.19109 2.1534,0.40703 l -0.0262,0.0267 -0.64553,0.65747 -0.002,0.002 c -0.39984,-0.13862 -0.84619,-0.219 -1.3184,-0.22415 -0.82422,-0.009 -1.57522,0.21185 -2.13578,0.57856 l -0.008,-0.008 -0.66247,-0.64159 -0.0591,-0.0573 c 0.73656,-0.43375 1.68936,-0.75217 2.70442,-0.7411 z m 7.98883,2.94146 2e-5,-0.002 -8.6e-4,0.001 -4.24812,-4.15043 -1.46043,1.48831 c -0.59407,-0.23729 -1.53016,-0.4331 -2.24328,-0.44087 -1.03732,-0.0113 -2.1106,0.33125 -2.86251,0.78544 l -1.99269,-1.93011 3.6e-4,-0.002 -0.002,1.5e-4 -0.001,-10e-4 -3.5e-4,0.002 -0.72089,0.0676 -1.64723,8.49453 0.72273,0.0832 4.3e-4,-0.002 3.29569,-1.39895 c 0.005,0.005 0.0101,0.01 0.0154,0.0145 0.77288,0.69695 1.93951,1.14817 3.24964,1.16245 0.90909,0.01 1.75297,-0.1925 2.44813,-0.54417 l 1.30484,1.28067 4.13523,-4.2137 0.008,-0.69261 4.3e-4,-5.1e-4 -4.2e-4,-5.1e-4" />
      <path
         inkscape:connector-curvature="0"
         id="path18"
         style="fill:#000000;fill-opacity:1;fill-rule:nonzero;stroke:none;stroke-width:0.00851336"
         d="m -170.33481,37.835283 3.37884,0.0368 -0.33235,1.29763 -1.61948,-0.0176 -0.16756,0.6819 1.6894,0.0184 -0.30727,1.2023 -1.66753,-0.0182 -0.419,1.70834 -1.74547,-0.019 1.19042,-4.89057" />
      <path
         inkscape:connector-curvature="0"
         id="path20"
         style="fill:#000000;fill-opacity:1;fill-rule:nonzero;stroke:none;stroke-width:0.00851336"
         d="m -166.49661,37.877133 1.74547,0.019 -1.19046,4.89057 -1.74547,-0.019 1.19046,-4.89057" />
      <path
         inkscape:connector-curvature="0"
         id="path22"
         style="fill:#000000;fill-opacity:1;fill-rule:nonzero;stroke:none;stroke-width:0.00851336"
         d="m -163.03093,40.252803 c 0.56053,0.006 0.9564,-0.32049 0.96153,-0.79082 0.003,-0.25003 -0.18004,-0.37694 -0.54039,-0.38087 -0.10403,-0.001 -0.16012,0.006 -0.27248,0.0264 l -0.27659,1.12905 c 0.056,0.008 0.0639,0.0155 0.12793,0.0162 z m -1.2639,-2.32223 0.11225,-0.0135 c 0.56118,-0.0601 1.25832,-0.0966 1.64259,-0.0924 0.64051,0.007 1.13618,0.0859 1.51085,0.24432 0.47822,0.20375 0.76173,0.64063 0.75604,1.16246 -0.005,0.44836 -0.16166,0.87311 -0.4536,1.2008 -0.25136,0.2839 -0.47694,0.4211 -0.94292,0.55573 l -0.11252,0.0355 c 0.0477,0.0373 0.0635,0.0522 0.0873,0.0745 0.13444,0.15585 0.53414,0.95419 0.86991,1.74445 l -1.92169,-0.02086 c -0.24062,-0.70103 -0.31065,-0.88561 -0.63028,-1.68308 l -0.40261,1.67181 -1.69742,-0.0185 1.18209,-4.86123" />
      <path
         inkscape:connector-curvature="0"
         id="path24"
         style="fill:#000000;fill-opacity:1;fill-rule:nonzero;stroke:none;stroke-width:0.00851336"
         d="m -156.11544,37.990313 4.23514,0.0462 -0.31138,1.41612 -1.25692,-0.0137 -0.87071,3.47454 -1.74548,-0.019 0.87071,-3.47454 -1.36248,-0.0149 0.44112,-1.41471" />
      <path
         inkscape:connector-curvature="0"
         id="path26"
         style="fill:#000000;fill-opacity:1;fill-rule:nonzero;stroke:none;stroke-width:0.00851336"
         d="m -153.50885,42.457783 c 0.0378,4.1e-4 0.0594,-0.0175 0.0598,-0.0521 3.6e-4,-0.0329 -0.0193,-0.0513 -0.0571,-0.0517 -0.008,-9e-5 -0.01,-1.1e-4 -0.0181,10e-4 l -0.001,0.10036 c 0.007,0.002 0.01,0.002 0.0165,0.002 z m -0.15083,-0.20581 c 0.0215,-10e-4 0.0247,-0.003 0.0676,-0.006 0.0428,-0.003 0.0609,-0.004 0.079,-0.004 0.13995,0.002 0.20839,0.0566 0.20726,0.16027 -6.8e-4,0.0625 -0.0273,0.1001 -0.0836,0.12094 l -0.007,0.002 c 0.005,0.003 0.006,0.005 0.008,0.008 0.0147,0.0134 0.0632,0.088 0.10371,0.15591 l -0.15962,-0.002 c -0.0323,-0.0613 -0.042,-0.0778 -0.0824,-0.14733 l -0.002,0.14642 -0.13655,-10e-4 z m 0.15811,0.59267 c 0.20737,0.002 0.37544,-0.16219 0.37768,-0.36786 0.002,-0.20737 -0.16218,-0.37545 -0.36955,-0.37771 -0.20576,-0.002 -0.37374,0.16221 -0.37599,0.36788 -0.002,0.209 0.16057,0.37543 0.36786,0.37769 z m 0.009,-0.79824 c 0.23529,0.003 0.42417,0.19396 0.4216,0.42926 -0.003,0.23699 -0.19388,0.42424 -0.43088,0.42166 -0.23862,-0.003 -0.42259,-0.19072 -0.41997,-0.43094 0.003,-0.23693 0.19225,-0.42256 0.42925,-0.41998" />
      <path
         inkscape:connector-curvature="0"
         id="path28"
         style="fill:#000000;fill-opacity:1;fill-rule:nonzero;stroke:none;stroke-width:0.00851336"
         d="m -160.65186,42.719763 c 0.48918,0.15116 1.02494,0.23875 1.52626,0.24422 0.6806,0.007 1.20276,-0.14124 1.65458,-0.45984 0.50023,-0.34744 0.8265,-0.88784 0.83186,-1.38031 0.004,-0.33091 -0.13714,-0.63382 -0.39105,-0.84987 -0.19846,-0.16376 -0.40524,-0.29107 -0.82744,-0.49414 l -0.3425,-0.1654 c -0.11155,-0.0601 -0.16693,-0.11949 -0.16621,-0.18563 0.002,-0.17648 0.2276,-0.30624 0.53185,-0.30293 0.22763,0.002 0.49821,0.0716 1.01471,0.24673 l 0.37227,-1.32334 c -0.38653,-0.10951 -0.76375,-0.16644 -1.14121,-0.17055 -1.42514,-0.0155 -2.5306,0.75163 -2.54158,1.75868 -0.006,0.52925 0.3424,0.90799 1.21866,1.32927 0.41428,0.19564 0.48582,0.24794 0.48438,0.38022 -0.002,0.19845 -0.21976,0.32113 -0.57202,0.31729 -0.31225,-0.003 -0.71148,-0.10334 -1.25389,-0.3078 l -6.8e-4,1.7e-4 -0.39799,1.36323" />
      <path
         inkscape:connector-curvature="0"
         id="path2262"
         d="m -158.60389,36.189713 -0.40583,-0.41723 0.12857,-0.0833 c 0.0707,-0.0458 0.3516,-0.31449 0.62421,-0.59702 0.2726,-0.28254 0.97191,-0.99703 1.55403,-1.58776 l 1.0584,-1.07406 -0.51032,-0.49561 c -0.28068,-0.27258 -0.87048,-0.84771 -1.31066,-1.27807 l -0.80032,-0.78247 -0.47544,0.49393 c -0.26149,0.27166 -0.84906,0.87561 -1.3057,1.3421 l -0.83026,0.84819 0.68,0.66341 0.68001,0.66342 -0.18504,0.13797 c -0.10178,0.0759 -0.29542,0.19513 -0.43032,0.26498 l -0.24528,0.12701 -0.18495,-0.16491 c -0.10172,-0.0907 -0.53365,-0.50858 -0.95983,-0.92863 l -0.77488,-0.76374 1.66937,-1.70672 c 0.91816,-0.9387 1.81792,-1.85344 1.99948,-2.03275 l 0.33011,-0.32602 2.04694,2.00184 c 1.12581,1.10101 2.04086,2.01692 2.03342,2.03536 -0.0108,0.0269 -1.30232,1.35037 -3.79174,3.88572 l -0.18814,0.19161 z"
         style="opacity:0.22600026;fill:#000000;stroke:#000000;stroke-width:0.09747384;stroke-miterlimit:4;stroke-dasharray:none;stroke-opacity:1" />
      <path
         inkscape:connector-curvature="0"
         id="path2264"
         d="m -162.77702,35.694253 c -0.41462,-0.0623 -1.02362,-0.26027 -1.44695,-0.47038 -1.60516,-0.79665 -2.27445,-2.22557 -1.65667,-3.537 l 0.13674,-0.29027 0.30992,0.31675 0.30992,0.31675 0.002,0.50953 c 0.002,0.63694 0.10556,0.88106 0.58259,1.37222 0.37689,0.38805 0.94198,0.70118 1.56655,0.86807 0.52252,0.13962 1.5623,0.13975 2.1039,2.5e-4 1.7228,-0.44372 2.57983,-1.78873 1.95192,-3.06331 l -0.12108,-0.24578 0.24477,-0.25838 c 0.13462,-0.14211 0.25994,-0.26503 0.27849,-0.27316 0.10836,-0.0475 0.53652,0.70405 0.67198,1.17956 0.44238,1.55292 -0.89887,3.12113 -3.02394,3.53564 -0.43963,0.0857 -1.46122,0.10689 -1.90967,0.0395 z"
         style="opacity:0.22600026;fill:#000000;stroke:#000000;stroke-width:0.09747384;stroke-miterlimit:4;stroke-dasharray:none;stroke-opacity:1" />
      <path
         inkscape:connector-curvature="0"
         id="path2266"
         d="m -164.37398,30.545563 -0.33799,-0.32315 0.32853,-0.16527 c 1.2497,-0.62864 2.64354,-0.71307 4.16622,-0.25235 l 0.27868,0.0843 -0.32596,0.32178 -0.32596,0.32179 -0.29047,-0.085 c -0.20146,-0.059 -0.51172,-0.0876 -1.01254,-0.0935 -0.80987,-0.01 -1.13441,0.0544 -1.75449,0.3458 -0.19791,0.093 -0.36618,0.16903 -0.37393,0.16894 -0.008,-8e-5 -0.1662,-0.14557 -0.35209,-0.3233 z"
         style="opacity:0.22600026;fill:#000000;stroke:#000000;stroke-width:0.09747384;stroke-miterlimit:4;stroke-dasharray:none;stroke-opacity:1" />
      <path
         inkscape:connector-curvature="0"
         id="path2268"
         d="m -168.41359,36.427093 c 0.0174,-0.0901 0.36469,-1.91266 0.77167,-4.05021 0.40698,-2.13755 0.74597,-3.91616 0.75332,-3.95248 0.0124,-0.0611 1.05414,0.92693 3.497,3.31669 l 0.98249,0.96114 -0.003,0.2741 c -0.003,0.26076 0.008,0.2843 0.23008,0.48381 0.27274,0.2454 0.34662,0.17572 -0.65545,0.61817 l -0.68596,0.30287 -0.28847,-0.16013 c -0.15866,-0.0881 -0.36172,-0.22403 -0.45125,-0.30213 l -0.16277,-0.142 0.61866,-0.27436 c 0.34027,-0.15089 0.61693,-0.28671 0.6148,-0.30181 -0.004,-0.031 -2.90166,-2.78602 -2.95094,-2.80603 -0.0394,-0.016 -0.94612,4.46696 -0.91075,4.50311 0.0141,0.0144 0.26472,-0.0754 0.55694,-0.19954 l 0.53132,-0.22572 0.14635,0.23956 c 0.0805,0.13177 0.21661,0.31493 0.30248,0.40704 l 0.15614,0.16747 -0.12488,0.0476 c -0.0687,0.0262 -0.76267,0.31964 -1.54218,0.65211 l -1.41731,0.60449 z"
         style="opacity:0.22600026;fill:#000000;stroke:#000000;stroke-width:0.09747384;stroke-miterlimit:4;stroke-dasharray:none;stroke-opacity:1" />
      <path
         inkscape:connector-curvature="0"
         id="path2286"
         d="m -158.5887,36.178563 -0.36307,-0.37107 0.65397,-0.66529 c 0.35966,-0.36594 1.10214,-1.12631 1.64989,-1.68981 l 0.99593,-1.02452 -0.9974,-0.9874 c -0.54857,-0.54308 -1.13825,-1.11573 -1.31039,-1.27254 l -0.31299,-0.28513 -1.28089,1.29485 c -0.7045,0.71217 -1.28297,1.32823 -1.28549,1.36903 -0.003,0.0408 0.28909,0.351 0.64801,0.68931 0.72385,0.68231 0.72283,0.67564 0.14982,0.97947 l -0.35197,0.1866 -0.91828,-0.88735 c -0.50505,-0.48804 -0.91793,-0.91891 -0.91751,-0.95749 6.6e-4,-0.0624 3.80327,-3.9703 3.90701,-4.01519 0.039,-0.0172 1.69318,1.57489 3.37752,3.25064 l 0.73921,0.73544 -1.60383,1.62217 c -0.88211,0.8922 -1.76429,1.79729 -1.96042,2.0113 -0.1961,0.21404 -0.37896,0.38889 -0.40635,0.38854 -0.0273,-2.6e-4 -0.21313,-0.16752 -0.41281,-0.37162 z"
         style="opacity:0.22600026;fill:#000000;stroke:#000000;stroke-width:0.13784882;stroke-miterlimit:4;stroke-dasharray:none;stroke-opacity:1" />
      <path
         inkscape:connector-curvature="0"
         id="path2288"
         d="m -162.62856,35.693353 c -0.68418,-0.0789 -1.65749,-0.44102 -2.17907,-0.8108 -1.09651,-0.77738 -1.54047,-1.98157 -1.12591,-3.05385 l 0.15836,-0.40957 0.31682,0.31778 c 0.30478,0.30572 0.31666,0.33453 0.31272,0.75849 -0.0151,1.62745 2.07962,2.78255 4.18833,2.30958 0.90073,-0.20203 1.75411,-0.7908 2.07193,-1.42953 0.20842,-0.41884 0.21257,-1.09702 0.01,-1.58316 l -0.15254,-0.3655 0.24563,-0.24797 c 0.23571,-0.23792 0.25124,-0.24279 0.38465,-0.11966 0.0765,0.0706 0.23958,0.32638 0.36255,0.56843 0.20186,0.39747 0.22291,0.50377 0.21715,1.09661 -0.006,0.60985 -0.0245,0.68899 -0.26106,1.1142 -0.53796,0.96687 -1.83138,1.73942 -3.08805,1.84447 -0.22174,0.0185 -0.51815,0.0427 -0.6587,0.0536 -0.14052,0.011 -0.50169,-0.008 -0.80254,-0.0432 z"
         style="opacity:0.22600026;fill:#000000;stroke:#000000;stroke-width:0.13784882;stroke-miterlimit:4;stroke-dasharray:none;stroke-opacity:1" />
      <path
         inkscape:connector-curvature="0"
         id="path2290"
         d="m -164.36513,30.542843 -0.35323,-0.31772 0.36756,-0.18124 c 0.74511,-0.36743 1.39292,-0.50824 2.3005,-0.50005 0.79713,0.007 1.91084,0.19585 1.99671,0.33825 0.0182,0.0301 -0.0897,0.19277 -0.2396,0.36146 -0.26959,0.30326 -0.27549,0.30558 -0.52689,0.20963 -0.34403,-0.13134 -1.68854,-0.14182 -2.15182,-0.0168 -0.20122,0.0543 -0.51751,0.17197 -0.70291,0.26145 l -0.33711,0.16268 z"
         style="opacity:0.22600026;fill:#000000;stroke:#000000;stroke-width:0.13784882;stroke-miterlimit:4;stroke-dasharray:none;stroke-opacity:1" />
      <path
         inkscape:connector-curvature="0"
         id="path2292"
         d="m -168.39961,36.456943 c 9.4e-4,-0.1664 1.49952,-7.92562 1.53919,-7.96926 0.0261,-0.0289 1.0294,0.8977 2.22947,2.05882 2.08841,2.0206 2.18183,2.12257 2.17904,2.37839 -0.002,0.20913 0.0514,0.32112 0.24677,0.51463 l 0.24968,0.24733 -0.7849,0.3394 -0.7849,0.33939 -0.34572,-0.19308 c -0.32233,-0.18002 -0.54556,-0.3708 -0.47891,-0.40931 0.0159,-0.009 0.28914,-0.13866 0.60729,-0.28784 0.32873,-0.15411 0.55075,-0.29859 0.51427,-0.33462 -0.51326,-0.50701 -2.88954,-2.73203 -2.91808,-2.73233 -0.0517,-6.1e-4 -0.94819,4.43796 -0.90528,4.48182 0.0184,0.0189 0.2762,-0.0659 0.57284,-0.18838 0.36445,-0.15041 0.54829,-0.19479 0.56691,-0.13684 0.0151,0.0471 0.13475,0.22942 0.26578,0.40501 l 0.23824,0.31926 -1.44131,0.61269 c -1.45833,0.61993 -1.55093,0.65307 -1.5504,0.5549 z"
         style="opacity:0.22600026;fill:#000000;stroke:#000000;stroke-width:0.13784882;stroke-miterlimit:4;stroke-dasharray:none;stroke-opacity:1" />
      <path
         inkscape:connector-curvature="0"
         id="path2302"
         d="m -158.84323,36.653173 -0.63031,-0.63688 -0.3179,0.13373 c -1.66452,0.70042 -3.80364,0.4737 -5.13527,-0.54427 -0.14651,-0.112 -0.28252,-0.20381 -0.30225,-0.20403 -0.0197,-2.3e-4 -0.75978,0.3075 -1.64456,0.68382 -1.59012,0.6763 -1.61241,0.68391 -1.9317,0.66009 -0.17767,-0.0133 -0.33805,-0.0395 -0.35641,-0.0582 -0.0262,-0.0267 1.552,-8.35811 1.59476,-8.41921 0.006,-0.008 0.17023,-0.0263 0.36525,-0.0397 l 0.35456,-0.0244 0.22735,0.23961 c 0.2697,0.28424 0.21848,0.32403 -0.0599,0.0461 -0.10592,-0.10571 -0.20311,-0.18188 -0.21599,-0.16928 -0.027,0.027 -1.61256,8.30246 -1.59425,8.32245 0.0118,0.0129 3.05321,-1.26891 3.15151,-1.3282 0.0266,-0.0157 -0.0316,-0.11423 -0.12907,-0.21842 -0.0974,-0.10419 -0.23985,-0.29458 -0.3165,-0.42308 -0.0767,-0.1285 -0.14406,-0.23965 -0.14981,-0.24699 -0.006,-0.007 -0.25115,0.0887 -0.54527,0.21362 -0.29413,0.12485 -0.53873,0.22098 -0.54353,0.21365 -0.005,-0.008 0.18189,-0.93975 0.41487,-2.07204 0.23297,-1.13228 0.42544,-2.1109 0.4277,-2.17472 0.002,-0.0638 0.0215,-0.11534 0.0428,-0.1146 0.0431,0.002 2.82086,2.63486 2.83629,2.68877 0.005,0.0187 -0.24684,0.14955 -0.56043,0.29066 -0.3136,0.14111 -0.58005,0.26356 -0.59208,0.27216 -0.0875,0.0626 0.71167,0.64277 0.90336,0.65579 0.0755,0.005 1.58954,-0.62943 1.67172,-0.70064 0.0138,-0.0125 -0.0949,-0.1283 -0.2422,-0.25801 -0.26093,-0.22981 -0.26771,-0.24291 -0.26477,-0.51208 l 0.003,-0.27625 -1.48131,-1.4449 c -0.81473,-0.7947 -1.46863,-1.45733 -1.45312,-1.4725 0.0156,-0.0151 0.11881,0.0628 0.22954,0.17334 l 0.20134,0.20094 0.52141,-0.23836 c 1.32212,-0.60437 2.81237,-0.68049 4.22571,-0.21586 l 0.37835,0.12439 0.73736,-0.73624 0.73736,-0.73624 2.10529,2.0645 2.10528,2.0645 -0.004,0.32883 -0.004,0.32883 -1.39209,1.41864 c -0.76565,0.78025 -1.69511,1.72433 -2.06546,2.09796 l -0.67338,0.67932 z m 3.33207,-2.71488 1.40008,-1.4252 -0.40474,-0.39514 c -0.2226,-0.21733 -1.166,-1.14049 -2.09643,-2.05146 l -1.6917,-1.65631 -2.03464,2.07453 -2.03464,2.07453 0.6724,0.65901 c 0.36981,0.36245 0.8139,0.79489 0.98685,0.96097 l 0.31445,0.30195 0.22508,-0.11009 c 0.29682,-0.14524 0.66322,-0.41356 0.66579,-0.48815 0.001,-0.0325 -0.28738,-0.34354 -0.64137,-0.69117 l -0.6436,-0.63205 0.44865,-0.47154 c 0.24678,-0.25933 0.81862,-0.84635 1.27081,-1.30443 l 0.82217,-0.83287 1.26295,1.23613 1.26294,1.23614 -0.7952,0.80893 c -0.43736,0.44492 -1.10048,1.13141 -1.47359,1.52555 -0.3731,0.39415 -0.7661,0.77707 -0.8733,0.851 -0.10702,0.0742 -0.19508,0.15183 -0.19535,0.17306 -2.2e-4,0.0213 0.19534,0.22588 0.43461,0.45468 l 0.43502,0.41599 0.64119,-0.64463 c 0.35266,-0.35454 1.27124,-1.28596 2.04128,-2.06982 z m -5.50783,1.78711 c 1.55191,-0.24861 2.78194,-1.11904 3.17381,-2.24599 0.28178,-0.81029 0.0564,-1.86016 -0.53795,-2.50596 l -0.13404,-0.14563 -0.29205,0.31849 -0.29206,0.31848 0.15519,0.31425 c 0.14092,0.28535 0.15469,0.3593 0.14984,0.80422 -0.005,0.43256 -0.0227,0.52436 -0.15336,0.7833 -0.36952,0.73219 -1.2198,1.25769 -2.32675,1.43799 -1.51941,0.24749 -3.13117,-0.41676 -3.65226,-1.50519 -0.14951,-0.31228 -0.16452,-0.38875 -0.16175,-0.82403 l 0.003,-0.47981 -0.31603,-0.323 c -0.37392,-0.38216 -0.40119,-0.37359 -0.60731,0.19086 -0.625,1.71163 0.86295,3.49775 3.22436,3.8705 0.49058,0.0774 1.2539,0.0738 1.76731,-0.008 z m -0.37052,-1.0084 c 0.22223,-0.0284 0.41473,-0.062 0.42776,-0.0747 0.0128,-0.013 -0.16357,-0.21442 -0.39244,-0.44834 l -0.41615,-0.42533 -0.74099,0.32056 c -0.40753,0.17631 -0.76237,0.33859 -0.7885,0.36064 -0.0654,0.055 0.16843,0.13971 0.63312,0.2291 0.49257,0.0947 0.76901,0.10298 1.2772,0.038 z m 5.23535,-2.03394 c -0.007,-0.032 -0.48207,-0.51766 -1.05682,-1.07938 -0.98394,-0.96163 -1.05047,-1.01647 -1.13856,-0.93848 -0.0896,0.0793 -0.0882,0.0885 0.0315,0.21709 0.32137,0.3449 0.64116,1.07485 0.70565,1.6107 0.0574,0.47717 -0.0772,1.29794 -0.32505,1.98239 -0.0205,0.0566 0.37503,-0.31059 0.87893,-0.81573 0.50387,-0.50519 0.91081,-0.94465 0.90431,-0.97659 z m -10.2347,1.43724 0.31779,-0.13081 -0.0716,-0.26642 c -0.0394,-0.14653 -0.082,-0.52292 -0.0947,-0.83642 -0.0257,-0.63279 0.0455,-0.97461 0.29741,-1.42813 l 0.13652,-0.24581 -0.13533,-0.13831 c -0.0744,-0.0761 -0.14617,-0.1277 -0.15943,-0.11473 -0.0131,0.0132 -0.16253,0.70648 -0.33172,1.54114 -0.16919,0.83465 -0.32057,1.56963 -0.33641,1.6333 -0.0364,0.14646 -0.009,0.14547 0.37754,-0.0138 z m 7.13648,-0.46179 c 0.15152,-0.20028 0.37308,-0.6619 0.37504,-0.78126 0.003,-0.1609 -0.23485,-0.57404 -0.45405,-0.78988 l -0.2119,-0.20865 -0.44696,0.45146 -0.44697,0.45146 0.50331,0.51634 c 0.27681,0.28399 0.51678,0.51648 0.53325,0.51666 0.0166,3.2e-4 0.083,-0.0703 0.14829,-0.15613 z m -5.00323,-0.34321 0.37897,-0.13327 -0.39764,-0.40879 c -0.21869,-0.22484 -0.41505,-0.40899 -0.43633,-0.40922 -0.0691,-7.9e-4 -0.20242,0.24028 -0.23419,0.42327 -0.0354,0.20379 0.13195,0.65869 0.24286,0.6603 0.037,5.2e-4 0.23792,-0.059 0.44633,-0.13229 z m 2.48998,-1.48426 0.64044,-0.66075 -0.18689,-0.0372 c -0.35044,-0.0697 -1.41505,-0.004 -1.78746,0.10953 -0.19095,0.0584 -0.36091,0.12799 -0.37772,0.15451 -0.0263,0.0415 0.97465,1.08784 1.0454,1.0928 0.0141,8.9e-4 0.314,-0.2955 0.66622,-0.65894 z m -1.86665,-1.08018 c 0.78883,-0.37618 1.81885,-0.47705 2.67586,-0.26204 l 0.39507,0.0991 0.35275,-0.34782 c 0.19404,-0.19127 0.34018,-0.36067 0.32477,-0.37643 -0.051,-0.0522 -0.99516,-0.28597 -1.40098,-0.34693 -1.08182,-0.16251 -2.11159,0.003 -3.13127,0.50299 l -0.3884,0.19046 0.38242,0.35735 c 0.21033,0.19654 0.39078,0.35791 0.401,0.3586 0.0105,0.001 0.18516,-0.0782 0.38878,-0.1753 z"
         style="opacity:0.5;fill:#000000;stroke:#000000;stroke-width:0.09747384;stroke-miterlimit:4;stroke-dasharray:none;stroke-opacity:1" />
      <path
         inkscape:connector-curvature="0"
         id="path2304"
         d="m -168.40804,36.539813 c 2.8e-4,-0.0275 1.03569,-5.4563 1.29022,-6.76491 l 0.26216,-1.34781 0.30607,0.27076 c 0.32477,0.28729 1.0926,1.03031 2.94819,2.85293 l 1.14178,1.12148 0.0227,0.30122 c 0.0211,0.28035 0.0386,0.31508 0.25216,0.50124 l 0.22946,0.20002 -0.38843,0.17058 c -0.21367,0.0938 -0.57751,0.2456 -0.80859,0.33733 l -0.42014,0.16679 -0.22499,-0.13563 c -0.12374,-0.0746 -0.30154,-0.20128 -0.39511,-0.28153 l -0.17014,-0.14591 0.5745,-0.27558 c 0.31594,-0.1516 0.57467,-0.29131 0.57487,-0.31057 0.001,-0.10035 -2.91339,-2.82923 -2.96459,-2.77579 -0.0351,0.0367 -0.20455,0.85383 -0.73384,3.53932 -0.10032,0.50895 -0.17183,0.93616 -0.15892,0.94935 0.0276,0.0282 0.82254,-0.27533 0.99285,-0.37904 0.0642,-0.0393 0.11664,-0.0531 0.1164,-0.031 -2.4e-4,0.0221 0.12235,0.20711 0.27243,0.4112 l 0.27288,0.37108 -1.22393,0.51536 c -0.67316,0.28344 -1.334,0.56892 -1.46853,0.63439 -0.23101,0.11244 -0.29979,0.13651 -0.29947,0.10474 z"
         style="opacity:0.5;fill:#000000;stroke:#000000;stroke-width:0.09747384;stroke-miterlimit:4;stroke-dasharray:none;stroke-opacity:1" />
      <path
         inkscape:connector-curvature="0"
         id="path2306"
         d="m -164.36343,30.527153 -0.32489,-0.29624 0.30394,-0.15029 c 0.38852,-0.19203 1.05419,-0.41144 1.47547,-0.48631 0.70554,-0.1254 1.75705,-0.0319 2.73672,0.24342 l 0.20937,0.0588 -0.31435,0.3075 -0.31435,0.30751 -0.36413,-0.087 c -0.46506,-0.11112 -1.28943,-0.12083 -1.80389,-0.0212 -0.21912,0.0424 -0.58326,0.15451 -0.80916,0.24909 -0.22588,0.0946 -0.42404,0.17172 -0.44032,0.17141 -0.0164,-4.5e-4 -0.1758,-0.13386 -0.35449,-0.29679 z"
         style="opacity:0.5;fill:#000000;stroke:#000000;stroke-width:0.09747384;stroke-miterlimit:4;stroke-dasharray:none;stroke-opacity:1" />
      <path
         inkscape:connector-curvature="0"
         id="path2308"
         d="m -158.61785,36.155523 -0.34344,-0.35372 0.64093,-0.63601 c 1.36389,-1.35343 2.65429,-2.70469 2.63631,-2.76066 -0.0103,-0.0322 -0.59207,-0.61954 -1.29271,-1.30517 l -1.27391,-1.2466 -0.49553,0.50449 c -0.27256,0.27746 -0.8656,0.8839 -1.31791,1.34762 l -0.82237,0.84312 0.65082,0.65417 0.65082,0.65416 -0.12299,0.12808 c -0.0676,0.0705 -0.24698,0.19083 -0.39795,0.26828 l -0.27496,0.14021 -0.27226,-0.25694 c -0.14974,-0.14131 -0.57663,-0.55438 -0.94863,-0.91793 l -0.67637,-0.66098 1.9894,-2.0266 1.98939,-2.0266 0.36302,0.35963 c 0.19965,0.19779 0.92572,0.90909 1.61348,1.58068 0.68775,0.67158 1.44599,1.41309 1.68495,1.6478 l 0.43449,0.42676 -1.97251,1.99567 c -1.08489,1.09763 -2.00089,1.99537 -2.03556,1.99499 -0.0347,-3.7e-4 -0.21759,-0.15986 -0.40648,-0.3544 z"
         style="opacity:0.5;fill:#000000;stroke:#000000;stroke-width:0.09747384;stroke-miterlimit:4;stroke-dasharray:none;stroke-opacity:1" />
      <path
         inkscape:connector-curvature="0"
         id="path2310"
         d="m -163.08485,35.609503 c -1.27819,-0.29837 -2.32809,-1.03495 -2.73616,-1.91961 -0.20983,-0.45489 -0.29898,-0.90562 -0.24984,-1.26314 0.0426,-0.30978 0.23211,-0.88638 0.30601,-0.93095 0.0292,-0.0175 0.17441,0.0907 0.32287,0.24051 l 0.26991,0.27244 0.0156,0.49768 c 0.0173,0.55133 0.13065,0.86049 0.47133,1.28561 0.36568,0.45632 1.17393,0.88841 1.96136,1.04852 1.52276,0.30965 3.18823,-0.30533 3.79926,-1.40286 0.1658,-0.2978 0.1741,-0.33754 0.17838,-0.85391 0.004,-0.49032 -0.009,-0.56771 -0.13582,-0.81788 l -0.1403,-0.2763 0.24416,-0.27956 c 0.23293,-0.26669 0.24856,-0.27546 0.33964,-0.19123 0.15737,0.14558 0.39349,0.55524 0.50804,0.88163 0.0827,0.23558 0.10747,0.43272 0.107,0.85192 -6.1e-4,0.54268 -0.002,0.54761 -0.22556,0.98728 -0.48231,0.94742 -1.5016,1.62622 -2.8319,1.88592 -0.4749,0.0927 -1.77872,0.0832 -2.20403,-0.0161 z"
         style="opacity:0.5;fill:#000000;stroke:#000000;stroke-width:0.09747384;stroke-miterlimit:4;stroke-dasharray:none;stroke-opacity:1" />
    </g>
    <ellipse
       style="opacity:0.5;fill:none;stroke:#000000;stroke-width:0.78120297;stroke-miterlimit:4;stroke-dasharray:none;stroke-opacity:1"
       id="path3990"
       cx="98.334297"
       cy="102.43295"
       rx="59.59898"
       ry="59.598984" />
  </g>
</svg>
