<?xml version="1.0" standalone="no"?>
<!DOCTYPE svg PUBLIC "-//W3C//DTD SVG 20010904//EN"
 "http://www.w3.org/TR/2001/REC-SVG-20010904/DTD/svg10.dtd">
<svg version="1.0" xmlns="http://www.w3.org/2000/svg"
 width="502.000000pt" height="304.000000pt" viewBox="0 0 502.000000 304.000000"
 preserveAspectRatio="xMidYMid meet">
<metadata>
Created by potrace 1.15, written by Peter Selinger 2001-2017
</metadata>
<g transform="translate(0.000000,304.000000) scale(0.100000,-0.100000)"
fill="#000000" stroke="none">
<path d="M172 2867 c-160 -160 -173 -176 -170 -206 3 -31 7 -27 208 174 202
202 204 205 170 205 -32 0 -50 -15 -208 -173z"/>
<path d="M272 2767 c-255 -256 -273 -276 -270 -306 3 -30 12 -23 308 274 297
297 304 305 270 305 -33 0 -55 -20 -308 -273z"/>
<path d="M372 2667 c-351 -351 -373 -376 -370 -405 3 -31 16 -19 408 373 392
392 404 405 370 405 -33 0 -60 -24 -408 -373z"/>
<path d="M472 2567 c-446 -446 -473 -475 -470 -505 3 -31 21 -14 508 473 488
488 504 505 470 505 -33 0 -64 -29 -508 -473z"/>
<path d="M572 2467 c-542 -542 -573 -575 -570 -605 3 -31 26 -10 608 573 583
583 604 605 570 605 -33 0 -69 -34 -608 -573z"/>
<path d="M672 2367 c-637 -637 -673 -675 -670 -705 3 -31 30 -5 708 673 678
678 704 705 670 705 -33 0 -74 -39 -708 -673z"/>
<path d="M772 2267 c-726 -726 -772 -774 -772 -807 l0 -34 65 64 64 64 -24
-60 c-14 -32 -28 -75 -31 -96 -4 -23 -19 -48 -40 -69 -26 -25 -34 -41 -34 -68
l0 -34 25 23 25 23 0 -65 c0 -56 -3 -68 -25 -88 -17 -16 -25 -34 -25 -59 l0
-35 28 27 28 27 12 -52 13 -52 -41 -41 c-31 -32 -40 -48 -40 -75 l0 -34 49 48
49 48 20 -43 20 -44 -69 -70 c-58 -60 -69 -76 -69 -105 l0 -35 83 82 82 82 27
-38 27 -38 -110 -109 c-97 -97 -109 -112 -109 -144 l0 -35 125 125 125 125 32
-33 33 -32 -158 -158 c-142 -143 -157 -160 -157 -192 0 -34 2 -33 178 143
l177 177 39 -26 38 -26 -216 -217 c-199 -199 -216 -219 -216 -251 0 -34 5 -30
239 204 l239 239 46 -19 46 -19 -233 -232 c-227 -228 -231 -233 -197 -233 32
0 53 18 260 224 l225 225 53 -11 54 -11 -214 -214 c-209 -210 -212 -213 -178
-213 32 0 52 17 245 210 204 204 211 210 250 210 86 0 79 -11 -132 -222 -195
-195 -197 -198 -163 -198 32 0 50 16 212 177 l178 178 32 -33 33 -32 -145
-145 c-144 -144 -145 -145 -110 -145 31 0 48 13 165 130 l130 130 39 -26 38
-26 -103 -104 -104 -104 35 0 c30 0 46 11 127 92 l92 91 46 -18 47 -17 -73
-74 -73 -74 35 0 c29 0 44 10 99 65 65 65 65 65 110 59 25 -4 49 -9 53 -11 5
-3 -15 -30 -44 -59 l-53 -54 34 0 c28 0 45 10 90 54 54 53 56 54 123 58 l67 4
-57 -58 -57 -58 34 0 c29 0 45 11 105 69 54 52 84 73 131 90 34 12 88 38 120
57 58 35 58 34 -66 -90 l-125 -126 35 0 c32 0 47 12 144 109 l109 109 44 -21
43 -21 -87 -88 -88 -88 35 0 c30 0 45 11 111 76 l77 76 51 -13 52 -13 -63 -63
-62 -63 35 0 c29 0 44 9 91 57 l57 58 62 -3 61 -4 -53 -54 -53 -54 34 0 c28 0
44 10 91 56 49 49 63 57 120 69 35 7 73 17 84 21 11 4 -14 -28 -55 -70 l-74
-76 34 0 c31 0 47 11 135 101 55 55 125 118 155 139 59 40 130 105 171 156 21
26 34 32 84 37 l59 6 -220 -220 c-215 -215 -218 -219 -184 -219 33 0 53 17
265 231 218 219 234 233 312 269 84 39 155 83 208 129 17 14 -116 -122 -295
-302 -316 -318 -324 -327 -290 -327 33 0 59 24 400 365 l365 365 65 0 65 0
-365 -365 c-354 -354 -364 -365 -330 -365 33 0 59 24 390 355 l355 355 11 -53
10 -52 -300 -302 c-294 -296 -300 -303 -266 -303 33 0 55 20 309 274 l274 274
22 -42 23 -41 -231 -232 c-227 -228 -231 -233 -197 -233 32 0 52 17 246 211
l212 212 30 -34 31 -34 -177 -177 c-175 -176 -176 -178 -142 -178 32 0 50 14
199 164 l164 164 36 -21 c20 -11 38 -22 41 -24 2 -2 -59 -67 -135 -143 l-140
-140 35 0 c32 0 48 13 165 130 l130 130 50 -6 c27 -4 52 -9 55 -11 2 -2 -50
-58 -115 -123 l-120 -120 35 0 c32 0 48 13 160 125 104 104 130 125 155 125
16 1 54 9 84 19 l54 19 -144 -144 -144 -144 35 0 c33 0 57 21 358 323 263 264
322 328 322 350 0 15 -3 27 -6 27 -4 0 -47 -39 -97 -88 -49 -48 -87 -78 -82
-67 4 11 15 50 24 86 15 60 23 74 89 143 50 53 72 84 72 101 0 14 -3 25 -6 25
-3 0 -36 -29 -74 -65 l-67 -66 -11 53 -10 53 84 87 c60 63 84 94 84 113 0 14
-3 25 -6 25 -4 0 -46 -39 -95 -86 l-87 -86 -22 42 -22 43 88 88 c69 69 95 89
116 89 l28 0 0 155 c0 151 -1 155 -19 145 -11 -5 -48 -10 -82 -10 l-62 0 82
85 c58 61 81 92 81 110 0 37 -16 25 -135 -94 l-100 -101 -64 0 -65 0 182 184
c144 144 182 189 182 210 0 14 -3 26 -6 26 -4 0 -49 -42 -101 -92 -85 -83 -92
-89 -78 -55 8 20 20 60 26 89 10 46 22 64 85 130 52 55 74 85 74 103 0 34 -18
24 -90 -50 l-55 -56 -11 53 -10 53 83 87 c60 63 83 94 83 113 0 35 -17 25
-109 -69 l-75 -75 -23 41 -23 41 115 118 c87 88 115 124 115 143 0 14 -3 26
-7 26 -3 0 -62 -55 -130 -122 l-123 -122 -32 32 -32 32 162 164 c127 128 162
169 162 190 0 14 -3 26 -7 26 -4 0 -86 -79 -184 -176 l-177 -176 -40 23 -41
24 224 226 c182 182 225 231 225 253 0 22 -3 25 -17 17 -10 -5 -124 -116 -253
-245 -146 -147 -240 -234 -250 -232 -8 2 -33 7 -54 11 l-39 7 296 296 c163
164 297 300 297 305 0 4 -12 7 -27 7 -23 0 -83 -55 -338 -310 -245 -245 -316
-310 -336 -310 -14 0 -52 -9 -85 -20 l-59 -20 330 330 c321 321 329 330 295
330 -33 0 -62 -27 -462 -427 -424 -424 -427 -427 -403 -368 13 33 25 73 25 90
0 25 47 77 337 367 327 328 337 338 303 338 -32 0 -57 -22 -331 -296 l-297
-297 -9 54 -10 54 241 243 c236 237 240 242 206 242 -32 0 -52 -17 -250 -215
l-215 -215 -22 43 -22 42 172 173 c170 170 171 172 137 172 -31 0 -49 -14
-187 -152 l-153 -153 -32 33 -33 32 120 120 120 120 -35 0 c-31 0 -47 -12
-140 -105 l-104 -104 -35 21 c-20 12 -38 23 -40 25 -3 2 31 39 74 83 l80 80
-35 0 c-29 0 -45 -10 -105 -70 l-71 -71 -58 7 -58 7 63 63 63 64 -35 0 c-29 0
-44 -10 -99 -65 -47 -47 -72 -65 -91 -65 -14 0 -52 -9 -85 -20 l-59 -21 85 86
85 85 -35 0 c-32 0 -56 -21 -320 -285 l-285 -285 -35 29 -35 30 255 255 c249
250 254 256 220 256 -32 0 -53 -19 -276 -241 l-242 -242 -33 23 c-19 13 -36
25 -39 27 -2 2 92 100 210 218 211 211 214 215 180 215 -32 0 -52 -17 -237
-202 l-202 -202 -40 19 c-23 10 -41 21 -41 24 0 3 80 86 177 183 176 176 177
178 143 178 -32 0 -50 -15 -205 -170 l-170 -169 -47 17 -48 17 152 152 c152
152 153 153 118 153 -31 0 -49 -14 -180 -145 l-146 -146 -53 12 -54 11 134
134 c134 134 134 134 99 134 -31 0 -48 -13 -166 -131 l-132 -132 -57 8 -58 7
124 124 124 124 -35 0 c-32 0 -48 -13 -160 -125 -130 -130 -126 -128 -229
-139 l-44 -5 134 135 c134 134 134 134 99 134 -31 0 -49 -14 -176 -141 l-142
-142 -97 -32 -98 -33 174 174 c172 172 173 174 139 174 -32 0 -52 -16 -240
-205 -132 -132 -238 -229 -297 -271 -108 -78 -239 -210 -310 -314 -28 -41
-100 -123 -160 -181 -94 -93 -114 -108 -158 -118 -27 -7 -70 -21 -95 -32 -38
-17 47 73 525 551 549 550 569 570 535 570 -33 0 -79 -44 -808 -773z m3152
-142 c-8 -19 -19 -58 -25 -87 -16 -77 -29 -88 -108 -88 l-66 0 105 105 c58 58
106 105 107 105 1 0 -5 -16 -13 -35z m-3063 -538 c33 -22 51 -57 30 -57 -6 0
-11 6 -11 14 0 26 -42 46 -94 46 -60 0 -86 -20 -86 -66 0 -27 6 -36 30 -49 16
-8 35 -15 43 -15 7 0 37 -7 66 -16 42 -12 55 -21 65 -45 26 -62 -8 -111 -84
-124 -50 -8 -104 9 -130 42 -21 28 -26 53 -10 53 6 0 10 -9 10 -19 0 -34 47
-61 104 -61 70 0 96 19 96 70 0 47 -11 55 -115 81 -74 19 -95 37 -95 79 0 78
106 118 181 67z m1318 12 c18 -6 38 -24 47 -40 19 -38 4 -37 -24 1 -21 27 -28
30 -82 30 -50 0 -61 -4 -74 -22 -20 -28 -20 -62 -1 -81 8 -8 47 -23 87 -32
115 -29 150 -85 90 -145 -53 -52 -158 -49 -202 7 -21 28 -26 53 -10 53 6 0 10
-7 10 -15 0 -9 11 -27 25 -40 50 -51 185 -23 185 39 0 42 -26 63 -102 81 -104
26 -137 65 -104 124 26 47 88 63 155 40z m669 -16 c63 -46 80 -143 40 -223
-32 -62 -66 -84 -132 -84 -90 -1 -147 55 -154 151 -5 72 26 136 78 165 45 25
129 20 168 -9z m-1662 -137 c56 -154 59 -166 46 -166 -5 0 -16 25 -26 55 l-17
55 -79 0 -79 0 -17 -55 c-10 -30 -21 -55 -26 -55 -13 0 -11 5 50 167 74 199
76 199 148 -1z m259 9 c49 -80 93 -145 97 -145 5 0 8 65 8 145 0 90 4 145 10
145 6 0 10 -60 10 -161 0 -146 -2 -160 -17 -157 -10 2 -60 70 -113 153 l-95
149 -3 -152 c-4 -208 -22 -201 -22 8 0 209 4 210 125 15z m415 129 c44 -26 65
-71 65 -139 0 -115 -55 -165 -182 -165 l-73 0 0 160 0 160 81 0 c57 0 89 -5
109 -16z m1354 -5 c37 -29 37 -89 0 -118 l-26 -21 23 -19 c18 -14 24 -32 29
-80 4 -43 2 -61 -6 -61 -7 0 -13 24 -16 61 -6 80 -18 89 -120 89 l-78 0 0 -75
c0 -43 -4 -75 -10 -75 -6 0 -10 60 -10 160 l0 160 94 0 c79 0 97 -3 120 -21z"/>
<path d="M2666 1558 c-57 -57 -57 -171 -2 -235 22 -25 31 -28 91 -28 60 0 69
3 91 28 56 65 56 177 -1 234 -30 30 -39 33 -90 33 -51 0 -60 -3 -89 -32z"/>
<path d="M1690 1446 l0 -146 74 0 c63 0 76 3 99 24 33 31 40 60 35 142 -3 53
-9 69 -30 91 -23 22 -37 27 -102 31 l-76 5 0 -147z"/>
<path d="M3020 1516 l0 -76 64 0 c67 0 115 12 128 33 13 20 9 72 -6 93 -12 16
-29 20 -100 23 l-86 3 0 -76z"/>
<path d="M4762 255 c-247 -244 -252 -250 -221 -253 30 -3 47 11 236 200 226
225 246 248 241 281 -3 19 -43 -17 -256 -228z"/>
<path d="M4856 150 l-151 -150 36 0 c33 0 46 11 157 124 93 94 122 130 122
150 0 14 -3 26 -7 26 -4 0 -74 -67 -157 -150z"/>
</g>
</svg>
